HIERARCHY
ROOT Hips
{
	OFFSET 0.000000 0.000000 0.000000
	CHANNELS 6 Xposition Yposition Zposition Yrotation Xrotation Zrotation
	JOINT Chest
	{
		OFFSET 0.000000 -0.009281 11.569106
		CHANNELS 3 Yrotation Xrotation Zrotation
		JOINT Chest2
		{
			OFFSET -0.000000 0.016865 9.269641
			CHANNELS 3 Yrotation Xrotation Zrotation
			JOINT Chest3
			{
				OFFSET -0.000000 0.000001 8.374491
				CHANNELS 3 Yrotation Xrotation Zrotation
				JOINT Chest4
				{
					OFFSET -0.000000 0.000001 8.374493
					CHANNELS 3 Yrotation Xrotation Zrotation
					JOINT Neck
					{
						OFFSET -0.000000 0.000002 12.152554
						CHANNELS 3 Yrotation Xrotation Zrotation
						JOINT Head
						{
							OFFSET -0.000000 0.040101 7.802319
							CHANNELS 3 Yrotation Xrotation Zrotation
							End Site
							{
								OFFSET -0.000000 0.020947 14.853096
							}
						}
					}
					JOINT RightCollar
					{
						OFFSET 2.894404 0.000001 6.791374
						CHANNELS 3 Yrotation Xrotation Zrotation
						JOINT RightShoulder
						{
							OFFSET 13.574684 0.000001 0.000000
							CHANNELS 3 Yrotation Xrotation Zrotation
							JOINT RightElbow
							{
								OFFSET 23.923903 0.000002 0.000000
								CHANNELS 3 Yrotation Xrotation Zrotation
								JOINT RightWrist
								{
									OFFSET 19.846718 0.012767 0.000000
									CHANNELS 3 Yrotation Xrotation Zrotation
									End Site
									{
										OFFSET 14.973145 0.000001 0.000000
									}
								}
							}
						}
					}
					JOINT LeftCollar
					{
						OFFSET -2.894404 0.000001 6.791374
						CHANNELS 3 Yrotation Xrotation Zrotation
						JOINT LeftShoulder
						{
							OFFSET -13.574684 -0.000001 0.000000
							CHANNELS 3 Yrotation Xrotation Zrotation
							JOINT LeftElbow
							{
								OFFSET -23.923903 -0.000002 0.000000
								CHANNELS 3 Yrotation Xrotation Zrotation
								JOINT LeftWrist
								{
									OFFSET -19.846718 0.012763 0.000000
									CHANNELS 3 Yrotation Xrotation Zrotation
									End Site
									{
										OFFSET -14.973145 -0.000001 0.000000
									}
								}
							}
						}
					}
				}
			}
		}
	}
	JOINT RightHip
	{
		OFFSET 9.469263 0.004643 0.045487
		CHANNELS 3 Yrotation Xrotation Zrotation
		JOINT RightKnee
		{
			OFFSET 0.000000 0.002661 -40.478676
			CHANNELS 3 Yrotation Xrotation Zrotation
			JOINT RightAnkle
			{
				OFFSET 0.000000 0.049106 -35.224068
				CHANNELS 3 Yrotation Xrotation Zrotation
				JOINT RightToe
				{
					OFFSET -0.000001 12.539529 -6.151390
					CHANNELS 3 Yrotation Xrotation Zrotation
					End Site
					{
						OFFSET -0.000001 5.044994 -1.291870
					}
				}
			}
		}
	}
	JOINT LeftHip
	{
		OFFSET -9.469263 0.004641 0.045487
		CHANNELS 3 Yrotation Xrotation Zrotation
		JOINT LeftKnee
		{
			OFFSET 0.000000 0.002661 -40.478676
			CHANNELS 3 Yrotation Xrotation Zrotation
			JOINT LeftAnkle
			{
				OFFSET 0.000000 0.049106 -35.224068
				CHANNELS 3 Yrotation Xrotation Zrotation
				JOINT LeftToe
				{
					OFFSET -0.000001 12.539529 -6.151390
					CHANNELS 3 Yrotation Xrotation Zrotation
					End Site
					{
						OFFSET -0.000001 5.044994 -1.291870
					}
				}
			}
		}
	}
}
MOTION
Frames: 7
Frame Time: 0.016667
10.886492 2.390846 82.905220 -7.447130 -4.673439 -115.361212 -9.164492 2.273408 4.133883 -4.094158 0.934425 1.905646 -4.094157 0.934426 1.905645 -3.073501 0.688099 1.435541 -4.461848 -27.799777 14.829736 -4.966179 -15.639817 25.470136 -3.923901 10.571297 -12.662550 20.255466 18.748108 47.490104 -33.531707 -25.465056 31.673336 -62.676363 6.780003 37.622202 -5.678465 -19.006733 -14.542823 -56.338238 -21.971494 -63.806500 8.437215 -41.193120 -55.692782 72.650919 -0.661680 -58.389122 2.699537 -11.793203 -2.369303 0.095966 -2.557688 1.161072 0.160818 5.627113 3.550599 -0.045109 -0.059171 -0.011825 2.630118 -13.986889 3.162047 0.998793 0.323220 0.329847 -1.795501 5.273275 3.915642 -0.037588 0.012343 0.007235 
10.878152 2.380400 82.904526 -7.446426 -4.674121 -115.368397 -9.159041 2.271563 4.132191 -4.091053 0.933258 1.904756 -4.091052 0.933259 1.904758 -3.071166 0.687238 1.434861 -4.472896 -27.810188 14.827371 -4.987782 -15.656933 25.463656 -3.923057 10.584672 -12.646446 20.218284 18.736109 47.447682 -33.542697 -25.455816 31.678977 -62.688043 6.789536 37.646688 -5.674207 -19.007081 -14.533510 -56.315678 -21.995246 -63.827285 8.400602 -41.156336 -55.654062 72.658145 -0.618855 -58.405214 2.697661 -11.796176 -2.378286 0.106746 -2.549730 1.157984 0.166610 5.623917 3.590498 -0.048181 -0.058524 -0.012210 2.638014 -13.981400 3.148273 0.997484 0.316500 0.325023 -1.789252 5.274693 3.876033 -0.038186 0.011120 0.007376 
10.872197 2.374023 82.903885 -7.447152 -4.671336 -115.376949 -9.152922 2.273098 4.131567 -4.087514 0.934003 1.904997 -4.087514 0.934003 1.904999 -3.068514 0.687806 1.435040 -4.488252 -27.821261 14.831677 -5.015848 -15.675037 25.468160 -3.930781 10.582393 -12.647914 20.198338 18.728198 47.422751 -33.554629 -25.426409 31.707125 -62.703513 6.825735 37.665905 -5.677637 -19.014417 -14.526720 -56.329448 -21.991112 -63.821260 8.386333 -41.163764 -55.651442 72.681088 -0.587767 -58.452779 2.699154 -11.796176 -2.392438 0.114481 -2.543070 1.158771 0.166261 5.623484 3.581666 -0.049259 -0.060492 -0.013701 2.639177 -13.974232 3.139749 0.995811 0.305894 0.327255 -1.780387 5.277431 3.857807 -0.039109 0.010705 0.007163 
10.864818 2.364857 82.902824 -7.447528 -4.665143 -115.387044 -9.150447 2.274154 4.129609 -4.087175 0.934704 1.904658 -4.087178 0.934704 1.904657 -3.068262 0.688337 1.434788 -4.501845 -27.829124 14.838284 -5.039861 -15.687707 25.477118 -3.923896 10.586455 -12.641152 20.212049 18.753312 47.423540 -33.555831 -25.432889 31.732581 -62.720541 6.875665 37.707528 -5.671336 -19.027017 -14.519051 -56.353517 -21.966119 -63.823057 8.400761 -41.217951 -55.664198 72.716509 -0.567155 -58.494368 2.693335 -11.797485 -2.409025 0.117831 -2.535092 1.162406 0.170545 5.623830 3.612226 -0.046941 -0.062002 -0.012143 2.637634 -13.967383 3.139558 0.997430 0.299538 0.328819 -1.776716 5.277723 3.854591 -0.039364 0.010448 0.006487 
10.859666 2.355956 82.901680 -7.446417 -4.660589 -115.393218 -9.153955 2.264841 4.128472 -4.088950 0.930930 1.904192 -4.088951 0.930932 1.904195 -3.069583 0.685502 1.434416 -4.508442 -27.827494 14.838086 -5.051210 -15.683612 25.475342 -3.908453 10.612777 -12.646207 20.228034 18.770367 47.425002 -33.554503 -25.448317 31.751350 -62.732747 6.881961 37.724576 -5.647882 -19.034137 -14.527720 -56.329694 -21.944372 -63.855937 8.410491 -41.247519 -55.659041 72.762381 -0.532645 -58.546783 2.696394 -11.797763 -2.428848 0.120846 -2.527440 1.165443 0.170085 5.622122 3.631556 -0.045849 -0.061413 -0.012269 2.640616 -13.965457 3.149339 0.996978 0.303082 0.315752 -1.776125 5.273820 3.869799 -0.036692 0.010411 0.007141 
10.854684 2.347160 82.900604 -7.445300 -4.657311 -115.406018 -9.157045 2.258973 4.131808 -4.090571 0.928185 1.905480 -4.090570 0.928186 1.905481 -3.070788 0.683430 1.435369 -4.506855 -27.824743 14.833057 -5.048863 -15.678450 25.466683 -3.915552 10.640529 -12.672066 20.241995 18.751835 47.444256 -33.526253 -25.455140 31.726888 -62.711723 6.849531 37.737871 -5.646828 -19.002630 -14.524903 -56.287835 -21.973098 -63.860022 8.430409 -41.249370 -55.643328 72.800616 -0.527476 -58.598973 2.696115 -11.796399 -2.435000 0.123793 -2.524338 1.174052 0.172571 5.622978 3.620466 -0.045662 -0.061227 -0.012299 2.644626 -13.967495 3.178848 0.993231 0.311164 0.296919 -1.775776 5.267592 3.909966 -0.033576 0.010874 0.007127 
10.850772 2.336986 82.899574 -7.450489 -4.658269 -115.411646 -9.160310 2.260696 4.137943 -4.092094 0.928915 1.908331 -4.092099 0.928915 1.908331 -3.071941 0.683954 1.437513 -4.497814 -27.828491 14.823261 -5.035408 -15.686107 25.451182 -3.904375 10.651823 -12.668159 20.209107 18.738846 47.419951 -33.496139 -25.465537 31.700335 -62.681411 6.813483 37.754441 -5.660000 -18.979163 -14.526016 -56.285120 -22.001750 -63.836519 8.437410 -41.283791 -55.615112 72.842028 -0.514738 -58.655472 2.703305 -11.805967 -2.434055 0.119099 -2.517366 1.175186 0.177374 5.622000 3.624505 -0.045020 -0.059636 -0.011598 2.649556 -13.973879 3.189610 0.993123 0.312728 0.288197 -1.775982 5.266411 3.923660 -0.031770 0.010285 0.007123 
